<svg width="20" height="20" viewBox="0 0 20 20" fill="none" xmlns="http://www.w3.org/2000/svg">
<path fill-rule="evenodd" clip-rule="evenodd" d="M18 10C18 14.4183 14.4183 18 10 18C5.58172 18 2 14.4183 2 10C2 5.58172 5.58172 2 10 2C14.4183 2 18 5.58172 18 10ZM20 10C20 15.5228 15.5228 20 10 20C4.47715 20 0 15.5228 0 10C0 4.47715 4.47715 0 10 0C15.5228 0 20 4.47715 20 10ZM14.2426 14.2426C13.8521 14.6332 13.219 14.6332 12.8284 14.2426L10 11.4142L7.17157 14.2426C6.78105 14.6332 6.14788 14.6332 5.75736 14.2426C5.36684 13.8521 5.36684 13.219 5.75736 12.8284L8.58579 10L5.75736 7.17157C5.36683 6.78105 5.36683 6.14788 5.75736 5.75736C6.14788 5.36684 6.78105 5.36684 7.17157 5.75736L10 8.58579L12.8284 5.75736C13.219 5.36684 13.8521 5.36684 14.2426 5.75736C14.6332 6.14788 14.6332 6.78105 14.2426 7.17157L11.4142 10L14.2426 12.8284C14.6332 13.219 14.6332 13.8521 14.2426 14.2426Z" fill="#EB5757"/>
</svg>
