<svg width="20" height="20" viewBox="0 0 20 20" fill="none" xmlns="http://www.w3.org/2000/svg">
<path fill-rule="evenodd" clip-rule="evenodd" d="M2 10C2 5.58172 5.58172 2 10 2C10.9254 2 11.812 2.1567 12.6361 2.4442C13.1576 2.62611 13.7278 2.35085 13.9097 1.82938C14.0916 1.30792 13.8163 0.737716 13.2949 0.555803C12.2619 0.195438 11.1527 0 10 0C4.47715 0 0 4.47715 0 10C0 15.5228 4.47715 20 10 20C15.5228 20 20 15.5228 20 10C20 9.74029 19.9901 9.48271 19.9706 9.22762C19.9284 8.67695 19.4479 8.26468 18.8972 8.30681C18.3465 8.34893 17.9343 8.82949 17.9764 9.38016C17.992 9.58454 18 9.79124 18 10C18 14.4183 14.4183 18 10 18C5.58172 18 2 14.4183 2 10ZM19.7411 3.67144C20.1119 3.26217 20.0807 2.62977 19.6714 2.25894C19.2622 1.88812 18.6298 1.91928 18.2589 2.32856L9.96822 11.4789L7.76774 8.85711C7.41268 8.43408 6.78192 8.37898 6.35889 8.73404C5.93586 9.08909 5.88076 9.71986 6.23581 10.1429L8.43629 12.7646C9.2159 13.6935 10.6361 13.7204 11.4503 12.8217L19.7411 3.67144Z" fill="#31D0AA"/>
</svg>
