<svg width="24" height="23" viewBox="0 0 24 23" fill="none" xmlns="http://www.w3.org/2000/svg">
<path d="M11.1318 3.53499C11.5157 2.86318 12.4844 2.86318 12.8682 3.53499L21.4219 18.5039C21.8028 19.1705 21.3215 20 20.5536 20H3.44636C2.67854 20 2.19717 19.1705 2.57812 18.5039L11.1318 3.53499Z" stroke="#FFCC00" stroke-width="2"/>
<path d="M12.7686 14.9443H11.1279L10.8955 8.04688H13.001L12.7686 14.9443ZM11.9482 16.0244C12.2809 16.0244 12.5475 16.1224 12.748 16.3184C12.9531 16.5143 13.0557 16.765 13.0557 17.0703C13.0557 17.3711 12.9531 17.6195 12.748 17.8154C12.5475 18.0114 12.2809 18.1094 11.9482 18.1094C11.6201 18.1094 11.3535 18.0114 11.1484 17.8154C10.9479 17.6195 10.8477 17.3711 10.8477 17.0703C10.8477 16.7695 10.9479 16.5212 11.1484 16.3252C11.3535 16.1247 11.6201 16.0244 11.9482 16.0244Z" fill="#FFCC00"/>
</svg>
