<svg width="18" height="11" viewBox="0 0 18 11" fill="none" xmlns="http://www.w3.org/2000/svg">
<path d="M17.2592 2.1496C17.2598 1.82315 17.165 1.50679 16.9915 1.25543C16.8938 1.11396 16.7738 0.997014 16.6384 0.911297C16.503 0.82558 16.3548 0.772773 16.2023 0.755901C16.0499 0.73903 15.8961 0.758425 15.7499 0.812975C15.6037 0.867526 15.4679 0.956159 15.3503 1.0738L9.11147 7.33298L2.86098 1.29734C2.74192 1.18129 2.60493 1.09462 2.45787 1.04232C2.31082 0.990027 2.1566 0.973131 2.00409 0.992606C1.85158 1.01208 1.70378 1.06754 1.56918 1.15581C1.43458 1.24407 1.31584 1.36339 1.21979 1.50691C1.11383 1.65147 1.0339 1.82076 0.985027 2.00415C0.936154 2.18754 0.919388 2.38108 0.935782 2.57262C0.952177 2.76415 1.00138 2.94956 1.0803 3.11719C1.15922 3.28482 1.26615 3.43106 1.39439 3.54674L8.37818 10.2949C8.58645 10.5004 8.84769 10.6127 9.11729 10.6127C9.3869 10.6127 9.64814 10.5004 9.85641 10.2949L16.8402 3.30922C16.9811 3.16907 17.0924 2.99102 17.1652 2.78954C17.238 2.58806 17.2702 2.36882 17.2592 2.1496Z" fill="#4F4F4F"/>
</svg>
