<svg width="42" height="42" viewBox="0 0 42 42" fill="none" xmlns="http://www.w3.org/2000/svg">
<path d="M23 9.42847C23 8.3239 22.1046 7.42847 21 7.42847C19.8954 7.42847 19 8.3239 19 9.42847H23ZM21 21.4285H19V22.3266L19.6713 22.9233L21 21.4285ZM27.3856 29.7804C28.2111 30.5143 29.4753 30.4399 30.2091 29.6143C30.9429 28.7888 30.8686 27.5246 30.043 26.7908L27.3856 29.7804ZM19 9.42847V21.4285H23V9.42847H19ZM19.6713 22.9233L27.3856 29.7804L30.043 26.7908L22.3287 19.9336L19.6713 22.9233Z" fill="#0837E5"/>
<circle cx="21" cy="21" r="19" stroke="#0837E5" stroke-width="4"/>
</svg>
