<svg width="29" height="29" viewBox="0 0 29 29" fill="none" xmlns="http://www.w3.org/2000/svg">
<path d="M1 5.62354H27.2473V23.4963C27.2473 25.7054 25.4565 27.4963 23.2473 27.4963H5C2.79086 27.4963 1 25.7054 1 23.4963V5.62354Z" stroke="#828282" stroke-width="2"/>
<path d="M20.2483 11.748C20.2483 15.1304 17.5063 17.8724 14.1239 17.8724C10.7415 17.8724 7.99951 15.1304 7.99951 11.748" stroke="#828282" stroke-width="2" stroke-linecap="round"/>
<path d="M0.366762 4.41216C-0.0606827 4.76189 -0.123685 5.39191 0.226043 5.81936C0.57577 6.2468 1.20579 6.30981 1.63324 5.96008L0.366762 4.41216ZM5.81201 1.24902V0.249023H5.45504L5.17877 0.475066L5.81201 1.24902ZM22.8728 1.24902L23.5417 0.505729L23.2565 0.249023H22.8728V1.24902ZM26.5784 5.92942C26.9889 6.29887 27.6212 6.2656 27.9906 5.85509C28.3601 5.44458 28.3268 4.81229 27.9163 4.44283L26.5784 5.92942ZM1.63324 5.96008L6.44525 2.02298L5.17877 0.475066L0.366762 4.41216L1.63324 5.96008ZM5.81201 2.24902H22.8728V0.249023H5.81201V2.24902ZM22.2038 1.99232L26.5784 5.92942L27.9163 4.44283L23.5417 0.505729L22.2038 1.99232Z" fill="#828282"/>
</svg>
