<svg width="20" height="13" viewBox="0 0 20 13" fill="none" xmlns="http://www.w3.org/2000/svg">
<path d="M19.6067 6.13839C19.5783 6.0776 18.8936 4.63464 17.3817 3.19814C15.362 1.27929 12.8095 0.265015 9.99994 0.265015C7.19041 0.265015 4.63783 1.27929 2.6183 3.19814C1.10626 4.63464 0.421577 6.0776 0.393296 6.13839C0.340025 6.25226 0.3125 6.37548 0.3125 6.5001C0.3125 6.62471 0.340025 6.74793 0.393296 6.8618C0.421655 6.92251 1.10634 8.36518 2.6183 9.80138C4.63791 11.7199 7.19041 12.7338 9.99994 12.7338C12.8095 12.7338 15.362 11.7199 17.3815 9.80138C18.8935 8.36525 19.5782 6.92251 19.6067 6.8618C19.6599 6.74793 19.6875 6.62471 19.6875 6.5001C19.6875 6.37548 19.6599 6.25226 19.6067 6.13839ZM16.0088 8.58612C14.3332 10.1564 12.3115 10.9526 9.99994 10.9526C7.68837 10.9526 5.66666 10.1564 3.99103 8.58612C3.33211 7.96677 2.76516 7.26495 2.30587 6.50006C2.76513 5.73492 3.33207 5.03285 3.99103 4.41325C5.66689 2.84263 7.68845 2.04634 9.99994 2.04634C12.3114 2.04634 14.3331 2.84271 16.0088 4.41325C16.6677 5.03281 17.2346 5.73483 17.6939 6.49991C17.2347 7.26487 16.6678 7.96674 16.0088 8.58612ZM9.99994 3.23443C9.32006 3.23443 8.65546 3.42596 8.09016 3.78479C7.52487 4.14362 7.08428 4.65364 6.8241 5.25036C6.56393 5.84707 6.49585 6.50368 6.62849 7.13715C6.76113 7.77062 7.08851 8.3525 7.56926 8.8092C8.05 9.26591 8.66251 9.57693 9.32931 9.70294C9.99612 9.82894 10.6873 9.76427 11.3154 9.5171C11.9435 9.26993 12.4804 8.85137 12.8581 8.31434C13.2358 7.77731 13.4374 7.14594 13.4374 6.50006C13.4364 5.63426 13.0739 4.80421 12.4295 4.192C11.785 3.57979 10.9113 3.23541 9.99994 3.23443ZM9.99994 7.98443C9.6909 7.98443 9.38881 7.89738 9.13186 7.73427C8.87491 7.57117 8.67464 7.33934 8.55638 7.0681C8.43811 6.79687 8.40717 6.49841 8.46746 6.21047C8.52775 5.92253 8.67656 5.65804 8.89508 5.45045C9.1136 5.24285 9.39201 5.10148 9.69511 5.0442C9.9982 4.98693 10.3124 5.01632 10.5979 5.12867C10.8834 5.24102 11.1274 5.43128 11.2991 5.67538C11.4708 5.91949 11.5624 6.20648 11.5624 6.50006C11.562 6.89361 11.3972 7.27091 11.1043 7.54919C10.8114 7.82747 10.4142 7.984 9.99994 7.98443Z" fill="#BDBDBD"/>
</svg>
