<svg width="20" height="10" viewBox="0 0 20 10" fill="none" xmlns="http://www.w3.org/2000/svg">
<path d="M19.8419 6.24395C19.9891 6.49699 20.029 6.7977 19.9528 7.07993C19.8765 7.36216 19.6905 7.60278 19.4354 7.74887C19.1804 7.89495 18.8774 7.93453 18.5929 7.8589C18.3085 7.78327 18.066 7.59862 17.9188 7.34558L16.4129 4.75738C15.564 5.28266 14.6509 5.69822 13.6959 5.99397L14.1761 8.69581C14.2031 8.83896 14.2012 8.98599 14.1705 9.12841C14.1399 9.27083 14.0811 9.4058 13.9975 9.52553C13.914 9.64525 13.8073 9.74735 13.6837 9.82592C13.5602 9.90449 13.4221 9.95796 13.2776 9.98326C13.1331 10.0085 12.9849 10.0052 12.8417 9.97327C12.6985 9.94139 12.5631 9.88165 12.4433 9.7975C12.3235 9.71336 12.2217 9.60649 12.1438 9.48306C12.0659 9.35964 12.0135 9.22211 11.9895 9.07844L11.522 6.44793C10.5096 6.56627 9.48662 6.56596 8.47427 6.44701L8.00696 9.07734C7.95454 9.36387 7.78991 9.61815 7.54908 9.78458C7.30825 9.951 7.0108 10.016 6.72178 9.96547C6.43276 9.91489 6.17568 9.75282 6.00674 9.51469C5.83781 9.27656 5.77077 8.98175 5.82029 8.69471L6.30055 5.99158C5.3469 5.69546 4.43521 5.27985 3.58755 4.75481L2.07173 7.35999C1.92451 7.61302 1.68201 7.79766 1.39759 7.87328C1.11318 7.9489 0.810132 7.90932 0.555127 7.76323C0.300123 7.61715 0.114048 7.37653 0.0378354 7.09431C-0.0383767 6.81209 0.00151733 6.51139 0.148741 6.25836L1.80065 3.41927C1.24373 2.92118 0.727524 2.38002 0.256895 1.80088C0.07473 1.57334 -0.00944873 1.28359 0.0226932 0.994748C0.0548352 0.705904 0.200694 0.441361 0.428501 0.258737C0.656309 0.0761128 0.94761 -0.00979745 1.23896 0.0197165C1.53031 0.0492305 1.79811 0.191778 1.98402 0.416312C3.43896 2.20325 6.01088 4.33326 10.0023 4.33326C13.9935 4.33326 16.5655 2.20325 18.0205 0.416404C18.1116 0.30253 18.2246 0.207695 18.3529 0.137368C18.4812 0.0670416 18.6223 0.0226159 18.7679 0.00665477C18.9136 -0.00930639 19.061 0.00351263 19.2017 0.0443719C19.3424 0.0852313 19.4735 0.153322 19.5875 0.244717C19.7015 0.336112 19.7961 0.449001 19.8659 0.576873C19.9358 0.704745 19.9794 0.845068 19.9943 0.989748C20.0091 1.13443 19.995 1.2806 19.9527 1.41983C19.9103 1.55907 19.8406 1.6886 19.7476 1.80097C19.276 2.38138 18.7586 2.92362 18.2002 3.42257L19.8419 6.24395Z" fill="#BDBDBD"/>
</svg>
