<svg width="29" height="29" viewBox="0 0 29 29" fill="none" xmlns="http://www.w3.org/2000/svg">
<path d="M15.1236 22.8727V21.8727H14.1236H9.37451C7.71766 21.8727 6.37451 20.5296 6.37451 18.8727V9.37451C6.37451 7.71766 7.71766 6.37451 9.37451 6.37451H24.9971C26.6539 6.37451 27.9971 7.71766 27.9971 9.37451V18.8727C27.9971 20.5296 26.654 21.8727 24.9971 21.8727H20.248H19.7128L19.4159 22.318L16.4239 26.8062C16.2922 27.0036 16.0706 27.1222 15.8333 27.1222C15.4414 27.1222 15.1236 26.8044 15.1236 26.4125V22.8727Z" stroke="#828282" stroke-width="2"/>
<path d="M2.74982 18.4982V18.4982C1.78342 18.4982 1 17.7148 1 16.7484V5C1 2.79086 2.79086 1 5 1H22.8728C23.8392 1 24.6226 1.78342 24.6226 2.74982V2.74982" stroke="#828282" stroke-width="2" stroke-linecap="round"/>
</svg>
