<svg width="42" height="41" viewBox="0 0 42 41" fill="none" xmlns="http://www.w3.org/2000/svg">
<path d="M21.6736 33.25V31.25H19.6736H12.25C11.1454 31.25 10.25 30.3546 10.25 29.25V12.25C10.25 11.1454 11.1454 10.25 12.25 10.25H38C39.1046 10.25 40 11.1454 40 12.25V29.25C40 30.3546 39.1046 31.25 38 31.25H31.6528H30.5824L29.9887 32.1406L26.1761 37.8594C25.8052 38.4158 25.1807 38.75 24.512 38.75H23.6736C22.569 38.75 21.6736 37.8546 21.6736 36.75V33.25Z" stroke="#46D5B3" stroke-width="4"/>
<path d="M4.5 27V27C3.11929 27 2 25.8807 2 24.5V6C2 3.79086 3.79086 2 6 2H33.25C34.6307 2 35.75 3.11929 35.75 4.5V4.5" stroke="#46D5B3" stroke-width="4" stroke-linecap="round"/>
</svg>
