<svg width="28" height="27" viewBox="0 0 28 27" fill="none" xmlns="http://www.w3.org/2000/svg">
<path d="M22.9907 0.408691H5.35596C2.8577 0.408691 0.947266 2.31913 0.947266 4.81739V22.4522C0.947266 24.9504 2.8577 26.8609 5.35596 26.8609H22.9907C25.489 26.8609 27.3994 24.9504 27.3994 22.4522V4.81739C27.3994 2.31913 25.489 0.408691 22.9907 0.408691ZM14.1734 9.22608C16.6716 9.22608 18.582 11.1365 18.582 13.6348C18.582 16.133 16.6716 18.0435 14.1734 18.0435C11.6751 18.0435 9.76466 16.133 9.76466 13.6348C9.76466 11.1365 11.6751 9.22608 14.1734 9.22608ZM19.7577 6.28695C19.7577 5.25826 20.6394 4.52347 21.5212 4.52347C22.4029 4.52347 23.2847 5.40521 23.2847 6.28695C23.2847 7.16869 22.5499 8.05043 21.5212 8.05043C20.4925 8.05043 19.7577 7.31565 19.7577 6.28695ZM22.9907 23.9217H5.35596C4.47422 23.9217 3.8864 23.3339 3.8864 22.4522V13.6348H6.82553C6.82553 17.7496 10.0586 20.9826 14.1734 20.9826C18.2881 20.9826 21.5212 17.7496 21.5212 13.6348H24.4603V22.4522C24.4603 23.3339 23.8725 23.9217 22.9907 23.9217Z" fill="#1D1C4F"/>
</svg>
