<svg width="27" height="29" viewBox="0 0 27 29" fill="none" xmlns="http://www.w3.org/2000/svg">
<mask id="path-1-inside-1" fill="white">
<path fill-rule="evenodd" clip-rule="evenodd" d="M9.07612 2.72429C9.07612 1.42614 10.1285 0.373779 11.4266 0.373779H15.4747C16.7729 0.373779 17.8252 1.42616 17.8252 2.7243C17.8252 4.53364 19.7839 5.66456 21.3508 4.75989C22.475 4.11084 23.9125 4.49601 24.5616 5.6202L26.5857 9.12608C27.2347 10.2503 26.8495 11.6878 25.7253 12.3369C24.1584 13.2415 24.1584 15.5032 25.7253 16.4079C26.8495 17.057 27.2347 18.4945 26.5856 19.6186L24.5614 23.1246C23.9124 24.2488 22.4749 24.6339 21.3508 23.9849C19.7839 23.0802 17.8252 24.2111 17.8252 26.0204C17.8252 27.3185 16.7729 28.3709 15.4748 28.3709H11.4266C10.1285 28.3709 9.07612 27.3186 9.07612 26.0204C9.07612 24.211 7.11732 23.0802 5.55034 23.9849C4.42609 24.634 2.98848 24.2488 2.3394 23.1246L0.315372 19.6188C-0.333702 18.4946 0.0514873 17.0571 1.17572 16.408C2.74272 15.5033 2.74269 13.2415 1.17568 12.3368C0.0514319 11.6877 -0.333785 10.2501 0.315301 9.12586L2.33929 5.62021C2.98838 4.49595 4.42602 4.11077 5.55028 4.75986C7.11729 5.66457 9.07612 4.53372 9.07612 2.72429Z"/>
</mask>
<path d="M2.33929 5.62021L0.607239 4.62021L2.33929 5.62021ZM0.315301 9.12586L-1.41675 8.12586L0.315301 9.12586ZM2.3394 23.1246L0.60735 24.1246L2.3394 23.1246ZM24.5614 23.1246L26.2935 24.1246L24.5614 23.1246ZM26.5856 19.6186L24.8536 18.6186L26.5856 19.6186ZM26.5857 9.12608L28.3177 8.12608L26.5857 9.12608ZM15.4747 -1.62622H11.4266V2.37378H15.4747V-1.62622ZM28.3177 8.12608L26.2936 4.6202L22.8295 6.6202L24.8536 10.1261L28.3177 8.12608ZM24.8536 18.6186L22.8294 22.1246L26.2935 24.1246L28.3177 20.6186L24.8536 18.6186ZM11.4266 30.3709H15.4748V26.3709H11.4266V30.3709ZM-1.41668 20.6188L0.60735 24.1246L4.07145 22.1246L2.04742 18.6188L-1.41668 20.6188ZM2.04735 10.1259L4.07134 6.62021L0.607239 4.62021L-1.41675 8.12586L2.04735 10.1259ZM4.55028 6.49191C7.45053 8.16637 11.0761 6.07343 11.0761 2.72429H7.07612C7.07612 2.99401 6.78405 3.16278 6.55028 3.02781L4.55028 6.49191ZM4.07134 6.62021C4.16813 6.45257 4.38256 6.39508 4.55028 6.49191L6.55028 3.02781C4.46947 1.82645 1.80864 2.53932 0.607239 4.62021L4.07134 6.62021ZM2.17568 10.6047C2.00799 10.5079 1.95056 10.2935 2.04735 10.1259L-1.41675 8.12586C-2.61813 10.2067 -1.90513 12.8675 0.175681 14.0688L2.17568 10.6047ZM2.17572 18.14C5.07611 16.4655 5.07597 12.2792 2.17568 10.6047L0.175681 14.0688C0.409405 14.2038 0.409335 14.5411 0.175717 14.6759L2.17572 18.14ZM2.04742 18.6188C1.95063 18.4512 2.00807 18.2368 2.17572 18.14L0.175717 14.6759C-1.9051 15.8773 -2.61804 18.538 -1.41668 20.6188L2.04742 18.6188ZM4.55034 22.2529C4.38264 22.3497 4.16823 22.2922 4.07145 22.1246L0.60735 24.1246C1.80874 26.2054 4.46955 26.9183 6.55034 25.717L4.55034 22.2529ZM11.0761 26.0204C11.0761 22.6713 7.45056 20.5784 4.55034 22.2529L6.55034 25.717C6.78408 25.582 7.07612 25.7508 7.07612 26.0204H11.0761ZM11.4266 26.3709C11.233 26.3709 11.0761 26.214 11.0761 26.0204H7.07612C7.07612 28.4231 9.02389 30.3709 11.4266 30.3709V26.3709ZM15.8252 26.0204C15.8252 26.214 15.6683 26.3709 15.4748 26.3709V30.3709C17.8775 30.3709 19.8252 28.4231 19.8252 26.0204H15.8252ZM22.3508 22.2528C19.4504 20.5783 15.8252 22.6716 15.8252 26.0204H19.8252C19.8252 25.7506 20.1173 25.5821 20.3508 25.7169L22.3508 22.2528ZM22.8294 22.1246C22.7326 22.2922 22.5184 22.3496 22.3508 22.2528L20.3508 25.7169C22.4315 26.9183 25.0922 26.2053 26.2935 24.1246L22.8294 22.1246ZM24.7253 18.14C24.8929 18.2367 24.9503 18.451 24.8536 18.6186L28.3177 20.6186C29.519 18.5379 28.8061 15.8772 26.7253 14.6759L24.7253 18.14ZM24.7253 10.6048C21.8251 12.2793 21.825 16.4655 24.7253 18.14L26.7253 14.6759C26.4917 14.541 26.4917 14.2038 26.7253 14.0689L24.7253 10.6048ZM24.8536 10.1261C24.9504 10.2937 24.893 10.508 24.7253 10.6048L26.7253 14.0689C28.8061 12.8676 29.5191 10.2069 28.3177 8.12608L24.8536 10.1261ZM22.3508 6.49194C22.5184 6.39517 22.7327 6.4526 22.8295 6.6202L26.2936 4.6202C25.0923 2.53943 22.4316 1.8265 20.3508 3.02784L22.3508 6.49194ZM15.8252 2.7243C15.8252 6.07314 19.4505 8.16647 22.3508 6.49194L20.3508 3.02784C20.1173 3.16265 19.8252 2.99415 19.8252 2.7243H15.8252ZM11.4266 -1.62622C9.02391 -1.62622 7.07612 0.321572 7.07612 2.72429H11.0761C11.0761 2.53071 11.233 2.37378 11.4266 2.37378V-1.62622ZM15.4747 2.37378C15.6683 2.37378 15.8252 2.53069 15.8252 2.7243H19.8252C19.8252 0.321642 17.8775 -1.62622 15.4747 -1.62622V2.37378Z" fill="#828282" mask="url(#path-1-inside-1)"/>
<circle cx="13.6886" cy="14.5123" r="4.8995" stroke="#828282" stroke-width="2"/>
</svg>
