<svg width="574" height="513" viewBox="0 0 574 513" fill="none" xmlns="http://www.w3.org/2000/svg">
<path opacity="0.5" fill-rule="evenodd" clip-rule="evenodd" d="M186.961 0.90507C245.542 7.62102 281.276 67.8407 317.897 117.425C348.834 159.313 375.541 204.654 376.92 258.107C378.337 313.074 360.951 367.294 325.36 406.808C289.208 446.943 238.672 463.291 186.961 469C127.635 475.551 55.6619 489.529 16.8595 440.87C-21.4939 392.773 17.3902 321.425 18.7886 258.107C20.1229 197.688 -7.58965 133.27 24.745 83.8174C60.5277 29.0913 125.064 -6.19089 186.961 0.90507Z" fill="#46D5B3"/>
<path fill-rule="evenodd" clip-rule="evenodd" d="M474.173 433.435C479.091 444.528 472.767 456.677 468.302 467.964C464.53 477.5 459.749 486.612 451.012 491.984C442.027 497.508 431.23 499.607 421.001 497.048C410.612 494.449 402.692 487.003 396.418 478.327C389.221 468.373 379.487 456.876 383.574 445.288C387.613 433.835 403.469 433.928 414.131 428.105C424.305 422.548 432.151 411.427 443.696 412.452C456.471 413.586 468.978 421.714 474.173 433.435Z" fill="#FFCC00" fill-opacity="0.5"/>
<path fill-rule="evenodd" clip-rule="evenodd" d="M391.041 30.0938C397.542 28.6043 403.433 33.2897 409.054 36.8823C413.803 39.9173 418.217 43.4524 420.199 48.7294C422.238 54.1558 422.238 60.2008 419.784 65.4509C417.293 70.7836 412.445 74.2754 407.106 76.7502C400.981 79.5893 393.758 83.635 387.935 80.215C382.179 76.8345 383.892 68.29 381.869 61.9274C379.938 55.8561 374.761 50.4566 376.525 44.336C378.477 37.5626 384.173 31.6675 391.041 30.0938Z" fill="#4E93FF" fill-opacity="0.5"/>
<g clip-path="url(#clip0)">
<g filter="url(#filter0_d)">
<path d="M545.424 112.149H112.855V345.071H545.424V112.149Z" fill="white"/>
</g>
<path opacity="0.3" d="M294.436 152.079H154.684V323.68H294.436V152.079Z" fill="#3A86FF"/>
<path d="M459.856 164.438H348.148V170.618H459.856V164.438Z" fill="#333333"/>
<path d="M510.718 175.846H348.148V182.026H510.718V175.846Z" fill="#333333"/>
<path d="M459.856 203.417H348.148V209.596H459.856V203.417Z" fill="#333333"/>
<path d="M459.856 249.05H348.148V255.23H459.856V249.05Z" fill="#333333"/>
<path d="M510.718 214.825H348.148V221.004H510.718V214.825Z" fill="#333333"/>
<path d="M510.718 226.233H348.148V232.413H510.718V226.233Z" fill="#333333"/>
<path d="M510.718 237.642H348.148V243.821H510.718V237.642Z" fill="#333333"/>
<path d="M406.616 276.62H348.148V292.782H406.616V276.62Z" fill="#3A86FF"/>
<path d="M303.468 142.809H163.715V314.411H303.468V142.809Z" fill="#333333"/>
<path d="M283.505 237.693C283.505 271.02 263.692 282.657 239.252 282.657C214.812 282.657 195 271.02 195 237.693C195 204.366 239.252 161.969 239.252 161.969C239.252 161.969 283.505 204.366 283.505 237.693Z" fill="#3A86FF"/>
<path d="M237.637 277.559L238.091 249.667L256.952 215.161L238.162 245.292L238.365 232.75L251.365 207.785L238.419 229.431V229.432L238.786 206.875L252.706 187L238.843 203.328L239.072 161.969L237.633 216.722L237.752 214.463L223.599 192.8L237.525 218.798L236.206 243.99L236.167 243.321L219.852 220.524L236.118 245.683L235.953 248.834L235.923 248.881L235.936 249.14L232.591 313.052H237.061L237.597 280.04L253.823 254.943L237.637 277.559Z" fill="#333333"/>
<path opacity="0.2" d="M119.505 442.517C153.896 442.517 181.776 438.899 181.776 434.436C181.776 429.973 153.896 426.355 119.505 426.355C85.114 426.355 57.2344 429.973 57.2344 434.436C57.2344 438.899 85.114 442.517 119.505 442.517Z" fill="#333333"/>
<path d="M90.0958 210.726L88.0273 215.638L90.3544 247.441C90.3544 247.441 89.0616 249.251 90.3544 250.544C91.6472 251.837 91.3887 252.354 91.3887 252.354C91.3887 252.354 89.3202 252.354 90.3544 253.905C91.3886 255.457 91.3887 256.232 91.3887 256.232L90.8715 257.784C90.8715 257.784 91.9058 259.077 91.9058 260.111C91.9058 261.145 98.6284 292.948 98.6284 292.948L105.092 280.279L101.473 229.859L90.0958 210.726Z" fill="#3A86FF"/>
<path d="M158.11 290.279C158.11 290.279 169.486 298.658 169.887 305.359C170.287 312.059 155.222 295.38 155.12 293.501C155.017 291.621 158.11 290.279 158.11 290.279Z" fill="#FFB9B9"/>
<path d="M86.7344 417.058L83.8903 426.366C83.8903 426.366 79.7533 435.416 85.4416 436.708C91.13 438.001 96.5598 433.089 96.5598 433.089V426.883L98.6283 417.058H86.7344Z" fill="#03023B"/>
<path d="M133.278 417.058C133.278 417.058 131.985 434.64 134.829 435.674C137.673 436.708 147.757 436.967 148.016 435.674C148.274 434.381 151.377 433.089 149.05 431.279C146.723 429.469 145.171 418.868 145.171 418.868L133.278 417.058Z" fill="#03023B"/>
<path d="M107.16 250.544V258.301C107.16 258.301 98.6272 276.142 95.5245 304.325C92.4217 332.508 81.8207 418.351 84.4063 419.902C86.9919 421.453 114.917 422.488 115.692 420.419C116.468 418.351 117.244 357.847 117.244 357.847L126.81 315.184C126.81 315.184 128.62 330.44 130.172 333.025C131.723 335.611 127.586 419.643 130.172 420.936C132.757 422.229 167.663 424.556 167.146 420.419C166.629 416.282 154.994 304.066 154.994 304.066C154.994 304.066 149.047 251.061 147.237 250.544C145.427 250.027 128.879 249.51 126.293 250.027C123.708 250.544 107.16 250.544 107.16 250.544Z" fill="#03023B"/>
<path d="M126.808 186.421C134.948 186.421 141.546 179.822 141.546 171.683C141.546 163.543 134.948 156.945 126.808 156.945C118.669 156.945 112.07 163.543 112.07 171.683C112.07 179.822 118.669 186.421 126.808 186.421Z" fill="#FFB9B9"/>
<path d="M129.916 184.094C129.916 184.094 122.417 195.729 124.227 198.832C126.037 201.934 105.094 195.729 105.094 195.729C105.094 195.729 117.763 180.215 117.505 178.405C117.246 176.595 129.916 184.094 129.916 184.094Z" fill="#FFB9B9"/>
<path d="M145.428 201.417C145.428 201.417 131.724 197.022 129.914 195.212C128.753 194.026 127.714 192.726 126.812 191.333C126.812 191.333 110.264 189.006 109.747 189.006C109.229 189.006 105.351 193.66 104.317 194.695C103.282 195.729 90.0958 202.71 90.0958 204.52C90.0958 206.33 88.0273 215.638 88.0273 215.638C88.0273 215.638 92.6815 225.205 95.5256 227.273C98.3698 229.342 99.1455 228.825 99.4041 232.186C99.6626 235.547 103.282 240.977 103.282 240.977C103.282 240.977 105.61 246.924 105.092 248.734C104.575 250.544 102.248 252.095 107.678 251.578C113.108 251.061 139.998 252.612 139.998 249.768C139.998 246.924 134.827 219.775 134.827 219.775L145.428 201.417Z" fill="#3A86FF"/>
<path d="M140.513 201.934L145.426 201.417C145.426 201.417 147.236 202.451 147.494 212.535C147.753 222.619 147.753 246.924 149.563 248.993C151.373 251.061 158.871 283.123 158.871 283.123C158.871 283.123 160.94 283.64 160.94 285.45C160.94 287.26 163.267 288.811 162.232 290.88C161.198 292.948 163.267 292.431 161.974 293.724C160.681 295.017 154.476 297.602 154.217 296.051C153.958 294.5 154.993 294.241 153.958 293.724C152.924 293.207 152.924 292.948 152.666 291.138C152.407 289.328 150.08 287.518 150.339 286.743C150.597 285.967 138.962 263.472 138.962 262.696C138.962 261.921 138.186 259.077 137.152 258.559C136.118 258.042 134.566 257.525 135.342 256.232C136.118 254.94 133.273 216.155 133.273 216.155L140.513 201.934Z" fill="#3A86FF"/>
<path d="M139.273 162.336C134.754 157.43 127.656 154.826 121.147 156.285C114.639 157.745 109.158 163.523 108.649 170.174C108.545 171.535 108.632 172.924 108.28 174.242C107.688 176.46 105.926 178.217 105.305 180.426C104.889 181.906 105.012 183.499 104.571 184.972C103.756 187.693 101.235 189.467 99.3126 191.558C98.5343 192.324 97.9562 193.27 97.6293 194.312C97.4603 195.237 97.4175 196.18 97.502 197.115C97.583 202.159 95.7077 207.039 92.2695 210.73C94.2912 209.228 96.4753 207.959 98.7808 206.945C97.6381 210.584 98.6828 214.89 101.558 217.396C104.433 219.902 109.039 220.291 112.148 218.082C113.994 216.769 115.194 214.754 116.34 212.799L120.678 205.397C121.462 204.059 122.282 202.681 123.535 201.766C124.532 201.04 125.742 200.653 126.745 199.935C129.275 198.125 129.954 194.582 129.483 191.507C129.012 188.432 127.629 185.578 126.836 182.569C126.209 180.19 126.012 177.464 127.423 175.448C129.296 172.773 133.146 172.432 135.691 170.385C136.649 169.615 137.078 168.677 137.764 167.713C138.397 166.822 138.559 167.142 139.541 167.101C142.236 166.989 140.272 163.42 139.273 162.336Z" fill="#03023B"/>
<path d="M126.403 179.649C127.06 179.649 127.592 178.372 127.592 176.797C127.592 175.222 127.06 173.945 126.403 173.945C125.747 173.945 125.215 175.222 125.215 176.797C125.215 178.372 125.747 179.649 126.403 179.649Z" fill="#FFB9B9"/>
</g>
<defs>
<filter id="filter0_d" x="108.535" y="112.149" width="441.208" height="241.561" filterUnits="userSpaceOnUse" color-interpolation-filters="sRGB">
<feFlood flood-opacity="0" result="BackgroundImageFix"/>
<feColorMatrix in="SourceAlpha" type="matrix" values="0 0 0 0 0 0 0 0 0 0 0 0 0 0 0 0 0 0 127 0"/>
<feOffset dy="4.32"/>
<feGaussianBlur stdDeviation="2.16"/>
<feColorMatrix type="matrix" values="0 0 0 0 0 0 0 0 0 0 0 0 0 0 0 0 0 0 0.1 0"/>
<feBlend mode="normal" in2="BackgroundImageFix" result="effect1_dropShadow"/>
<feBlend mode="normal" in="SourceGraphic" in2="effect1_dropShadow" result="shape"/>
</filter>
<clipPath id="clip0">
<rect width="516.705" height="380.517" fill="white" transform="translate(57 62)"/>
</clipPath>
</defs>
</svg>
