<svg width="27" height="33" viewBox="0 0 27 33" fill="none" xmlns="http://www.w3.org/2000/svg">
<path d="M7.99929 3.24854H5C2.79086 3.24854 1 5.0394 1 7.24854V27.2457C1 29.4548 2.79086 31.2457 5 31.2457H21.4975C23.7066 31.2457 25.4975 29.4548 25.4975 27.2457V7.24854C25.4975 5.0394 23.7066 3.24854 21.4975 3.24854H18.9357" stroke="#828282" stroke-width="2"/>
<rect x="8.12451" y="1.62402" width="10.2487" height="4.12437" rx="2.06219" stroke="#828282" stroke-width="2"/>
<line x1="6.37451" y1="12.7476" x2="12.2487" y2="12.7476" stroke="#828282" stroke-width="2" stroke-linecap="round"/>
<line x1="6.37451" y1="21.4966" x2="12.2487" y2="21.4966" stroke="#828282" stroke-width="2" stroke-linecap="round"/>
<path d="M15.8735 12.8729L16.9163 13.9156C17.3068 14.3061 17.9399 14.3061 18.3305 13.9156L21.123 11.123" stroke="#828282" stroke-width="2" stroke-linecap="round"/>
<path d="M15.8735 21.6219L16.9163 22.6646C17.3068 23.0551 17.9399 23.0551 18.3305 22.6646L21.123 19.8721" stroke="#828282" stroke-width="2" stroke-linecap="round"/>
</svg>
