<svg width="27" height="23" viewBox="0 0 27 23" fill="none" xmlns="http://www.w3.org/2000/svg">
<path d="M23.5687 4.30462C24.7561 3.57572 25.5423 2.58082 25.9273 1.31553C24.8429 1.90204 23.6791 2.32824 22.4724 2.58082C21.4393 1.46983 20.1314 0.905518 18.5633 0.905518C17.0306 0.905518 15.7359 1.44338 14.6793 2.48971C14.169 2.98658 13.7656 3.5824 13.4937 4.24067C13.2218 4.89894 13.0871 5.60579 13.098 6.31793C13.098 6.77202 13.1553 7.17762 13.27 7.5215C8.74958 7.3672 5.00807 5.49203 2.06012 1.88278C1.56047 2.76599 1.31065 3.66536 1.31065 4.5956C1.31065 6.5075 2.11744 8.02262 3.72808 9.13508C2.8096 9.0572 1.99987 8.82501 1.31065 8.44439C1.31065 9.80961 1.71184 10.95 2.51569 11.9537C3.29655 12.9318 4.397 13.6035 5.62382 13.8509C5.16532 13.9685 4.68183 14.0243 4.18512 14.0243C3.72661 14.0243 3.40184 13.9861 3.20932 13.9024C3.54732 15.0148 4.18512 15.9171 5.10653 16.6078C6.01743 17.2995 7.12545 17.682 8.26904 17.6997C6.31158 19.2354 4.07343 19.9952 1.54137 19.9952C0.921212 19.9952 0.481812 19.9864 0.21582 19.9393C2.70967 21.5588 5.48568 22.3626 8.55707 22.3626C11.7005 22.3626 14.478 21.5661 16.8954 19.9731C19.3128 18.3889 21.0969 16.4344 22.2431 14.1331C23.3767 11.9063 23.9669 9.44269 23.9655 6.94396V6.2562C25.022 5.47722 25.9367 4.52229 26.6695 3.43317C25.6799 3.86208 24.6368 4.15522 23.5687 4.30462Z" fill="#1D1C4F"/>
</svg>
