<svg width="44" height="40" viewBox="0 0 44 40" fill="none" xmlns="http://www.w3.org/2000/svg">
<path d="M24 32H4C3.46957 32 2.96086 31.7893 2.58579 31.4142C2.21071 31.0391 2 30.5304 2 30V4C2 3.46957 2.21071 2.96086 2.58579 2.58579C2.96086 2.21071 3.46957 2 4 2H40C40.5304 2 41.0391 2.21071 41.4142 2.58579C41.7893 2.96086 42 3.46957 42 4V30C42 30.5304 41.7893 31.0391 41.4142 31.4142C41.0391 31.7893 40.5304 32 40 32H32" stroke="#FFCC00" stroke-width="4" stroke-linecap="round" stroke-linejoin="round"/>
<path d="M10 10H34" stroke="#FFCC00" stroke-width="4" stroke-linecap="round" stroke-linejoin="round"/>
<path d="M10 17H16" stroke="#FFCC00" stroke-width="4" stroke-linecap="round" stroke-linejoin="round"/>
<path d="M10 24H14" stroke="#FFCC00" stroke-width="4" stroke-linecap="round" stroke-linejoin="round"/>
<path d="M28 29C29.5913 29 31.1174 28.3679 32.2426 27.2426C33.3679 26.1174 34 24.5913 34 23C34 21.4087 33.3679 19.8826 32.2426 18.7574C31.1174 17.6321 29.5913 17 28 17C26.4087 17 24.8826 17.6321 23.7574 18.7574C22.6321 19.8826 22 21.4087 22 23C22 24.5913 22.6321 26.1174 23.7574 27.2426C24.8826 28.3679 26.4087 29 28 29V29Z" stroke="#FFCC00" stroke-width="4"/>
<path d="M28 36L32 38V27.472C32 27.472 30.86 29 28 29C25.14 29 24 27.5 24 27.5V38L28 36Z" stroke="#FFCC00" stroke-width="4" stroke-linecap="round" stroke-linejoin="round"/>
</svg>
