<svg width="27" height="28" viewBox="0 0 27 28" fill="none" xmlns="http://www.w3.org/2000/svg">
<path d="M4.93004 0.134766C2.19901 0.134766 0 2.33378 0 5.06479V22.2047C0 24.9357 2.19901 27.1347 4.93004 27.1347H14.2197V16.5794H11.4286V12.7792H14.2197V9.53245C14.2197 6.98163 15.8689 4.63954 19.6678 4.63954C21.206 4.63954 22.3434 4.78721 22.3434 4.78721L22.2539 8.33603C22.2539 8.33603 21.0939 8.32506 19.8281 8.32506C18.4582 8.32506 18.2385 8.95627 18.2385 10.0041V12.7792H22.3628L22.183 16.5795H18.2385V27.1348H22.07C24.801 27.1348 27 24.9358 27 22.2047V5.06482C27 2.3338 24.801 0.134793 22.07 0.134793L4.93004 0.134766Z" fill="#1D1C4F"/>
</svg>
