<svg width="36" height="36" viewBox="0 0 36 36" fill="none" xmlns="http://www.w3.org/2000/svg">
<path d="M12.0259 27.9217H7.61719V13.2261H12.0259V27.9217ZM28.1911 27.9217H23.7824V20.0713C23.7824 18.0257 23.0535 17.0073 21.6089 17.0073C20.4641 17.0073 19.7382 17.5775 19.3737 18.7193V27.9217H14.965C14.965 27.9217 15.0238 14.6956 14.965 13.2261H18.4449L18.7139 16.1652H18.805C19.7088 14.6956 21.1534 13.6993 23.1343 13.6993C24.6406 13.6993 25.8589 14.1181 26.7891 15.1703C27.7252 16.224 28.1911 17.6377 28.1911 19.6231V27.9217Z" fill="#1D1C4F"/>
<path d="M9.82177 11.7566C11.0798 11.7566 12.0996 10.7697 12.0996 9.55225C12.0996 8.33482 11.0798 7.3479 9.82177 7.3479C8.56376 7.3479 7.54395 8.33482 7.54395 9.55225C7.54395 10.7697 8.56376 11.7566 9.82177 11.7566Z" fill="#1D1C4F"/>
</svg>
