<svg width="33" height="21" viewBox="0 0 33 21" fill="none" xmlns="http://www.w3.org/2000/svg">
<path d="M32.5062 5.63834C32.2123 3.43399 31.9184 1.81747 31.0367 1.22964C30.1549 0.494857 22.5132 0.3479 16.6349 0.3479C10.7567 0.3479 3.11494 0.494857 2.2332 1.22964C1.35147 1.81747 1.05755 3.43399 0.76364 5.63834C0.469727 7.84268 0.469727 9.16529 0.469727 10.6349C0.469727 12.1044 0.469727 13.427 0.76364 15.6314C1.05755 17.8357 1.35147 19.4522 2.2332 20.0401C3.11494 20.7749 10.7567 20.9218 16.6349 20.9218C22.5132 20.9218 30.1549 20.7749 31.0367 20.0401C31.9184 19.4522 32.2123 17.8357 32.5062 15.6314C32.8002 13.427 32.8002 12.1044 32.8002 10.6349C32.8002 9.16529 32.8002 7.84268 32.5062 5.63834ZM13.6958 15.9253V5.34442L22.5132 10.6349L13.6958 15.9253Z" fill="#1D1C4F"/>
</svg>
