<svg width="108" height="18" viewBox="0 0 108 18" fill="none" xmlns="http://www.w3.org/2000/svg">
<path d="M8.82685 0L10.8086 6.09921H17.2217L12.0334 9.86872L14.0151 15.9679L8.82685 12.1984L3.63856 15.9679L5.62031 9.86872L0.432017 6.09921H6.8451L8.82685 0Z" fill="#FFCC00"/>
<path d="M31.1514 0L33.0166 6.09921H39.0524L34.1693 9.86872L36.0345 15.9679L31.1514 12.1984L26.2683 15.9679L28.1335 9.86872L23.2504 6.09921H29.2862L31.1514 0Z" fill="#FFCC00"/>
<path d="M53.9984 0L56.0968 6.09921H62.8871L57.3936 9.86872L59.4919 15.9679L53.9984 12.1984L48.5049 15.9679L50.6033 9.86872L45.1098 6.09921H51.9001L53.9984 0Z" fill="#FFCC00"/>
<path d="M76.8467 0L78.7119 6.09921H84.7477L79.8646 9.86872L81.7298 15.9679L76.8467 12.1984L71.9636 15.9679L73.8288 9.86872L68.9457 6.09921H74.9815L76.8467 0Z" fill="#FFCC00"/>
<path d="M99.1745 0L101.156 6.09921H107.569L102.381 9.86872L104.363 15.9679L99.1745 12.1984L93.9862 15.9679L95.968 9.86872L90.7797 6.09921H97.1928L99.1745 0Z" fill="#C4C4C4"/>
</svg>
