<svg width="570" height="310" viewBox="0 0 570 310" fill="none" xmlns="http://www.w3.org/2000/svg">
<g clip-path="url(#clip0)">
<path d="M286.829 310C441.389 310 566.685 301.704 566.685 291.47C566.685 281.236 441.389 272.94 286.829 272.94C132.268 272.94 6.97266 281.236 6.97266 291.47C6.97266 301.704 132.268 310 286.829 310Z" fill="#F2F2F2"/>
<path d="M276.103 88.6173C230.507 88.6173 197.77 117.875 197.77 186.143C197.77 263.513 230.507 283.993 276.103 283.993C321.699 283.993 356.387 261.562 356.387 186.143C356.387 105.522 321.699 88.6173 276.103 88.6173ZM276.403 258.312C244.822 258.312 228.323 239.781 228.323 186.193C228.323 138.909 245.497 113.974 277.078 113.974C308.659 113.974 325.834 130.353 325.834 186.193C325.834 238.43 307.984 258.312 276.403 258.312Z" fill="#333333"/>
<path d="M170.465 230.029H151.613V174.506C151.613 171.557 150.441 168.729 148.356 166.644C146.271 164.558 143.444 163.387 140.495 163.387H136.078C134.618 163.387 133.172 163.674 131.823 164.233C130.474 164.792 129.249 165.611 128.216 166.644C127.184 167.676 126.365 168.902 125.806 170.251C125.247 171.6 124.96 173.046 124.96 174.506V230.029H71.7845C70.6906 230.029 69.6152 229.746 68.6627 229.208C67.7103 228.67 66.9131 227.895 66.3484 226.958C65.7838 226.021 65.4709 224.954 65.4401 223.86C65.4093 222.766 65.6617 221.683 66.1727 220.716L122.453 114.179C123.155 112.851 123.58 111.395 123.703 109.897C123.826 108.4 123.645 106.894 123.17 105.468C122.695 104.043 121.936 102.729 120.939 101.605C119.943 100.482 118.728 99.5717 117.37 98.9302L114.048 97.3611C111.468 96.1427 108.519 95.9628 105.81 96.8586C103.101 97.7544 100.841 99.6574 99.4957 102.174L30.8546 230.599C29.6857 232.786 29.0742 235.228 29.0742 237.707C29.0742 239.687 29.4642 241.648 30.2218 243.477C30.9794 245.307 32.0898 246.969 33.4897 248.369C34.8896 249.769 36.5515 250.88 38.3806 251.637C40.2096 252.395 42.17 252.785 44.1497 252.785H124.96V287.894C124.96 289.645 125.305 291.378 125.974 292.995C126.644 294.612 127.626 296.081 128.863 297.319C130.101 298.557 131.57 299.538 133.186 300.208C134.803 300.878 136.536 301.223 138.286 301.223H138.286C140.036 301.223 141.769 300.878 143.386 300.208C145.003 299.538 146.472 298.557 147.71 297.319C148.947 296.081 149.929 294.612 150.598 292.995C151.268 291.378 151.613 289.645 151.613 287.894V252.785H170.465C173.482 252.785 176.376 251.586 178.509 249.453C180.643 247.319 181.841 244.425 181.841 241.407C181.841 238.39 180.643 235.495 178.509 233.362C176.376 231.228 173.482 230.029 170.465 230.029Z" fill="#3A86FF"/>
<path d="M519.555 230.029H500.703V174.506C500.703 171.557 499.531 168.729 497.446 166.644C495.361 164.558 492.533 163.387 489.585 163.387H485.167C483.707 163.387 482.262 163.674 480.913 164.233C479.564 164.792 478.338 165.611 477.306 166.644C476.274 167.676 475.455 168.902 474.896 170.251C474.337 171.6 474.05 173.046 474.05 174.506V230.029H420.874C419.78 230.029 418.705 229.746 417.753 229.208C416.8 228.67 416.003 227.895 415.438 226.958C414.874 226.021 414.561 224.954 414.53 223.86C414.499 222.766 414.752 221.683 415.263 220.716L471.543 114.179C472.244 112.851 472.67 111.395 472.793 109.897C472.916 108.4 472.735 106.894 472.26 105.468C471.785 104.043 471.026 102.729 470.029 101.605C469.032 100.482 467.818 99.5717 466.46 98.9302L463.138 97.3611C460.558 96.1427 457.609 95.9628 454.9 96.8586C452.191 97.7544 449.93 99.6574 448.586 102.174L379.944 230.599C378.776 232.786 378.164 235.228 378.164 237.707C378.164 241.706 379.752 245.541 382.58 248.369C385.407 251.197 389.241 252.785 393.24 252.785H474.05V287.894C474.05 291.429 475.454 294.819 477.953 297.319C480.452 299.818 483.842 301.223 487.376 301.223C490.91 301.223 494.3 299.818 496.799 297.319C499.299 294.819 500.703 291.429 500.703 287.894V252.785H519.555C522.572 252.785 525.465 251.586 527.599 249.453C529.732 247.319 530.931 244.425 530.931 241.407C530.931 238.39 529.732 235.495 527.599 233.362C525.465 231.228 522.572 230.029 519.555 230.029Z" fill="#3A86FF"/>
<path d="M175.668 223.527H156.816V168.005C156.816 166.544 156.528 165.098 155.97 163.749C155.411 162.4 154.592 161.174 153.56 160.142C152.527 159.109 151.302 158.29 149.953 157.732C148.604 157.173 147.158 156.885 145.698 156.885H141.281C138.332 156.885 135.504 158.057 133.419 160.142C131.334 162.227 130.163 165.056 130.163 168.005V223.527H76.9876C75.8937 223.527 74.8183 223.245 73.8659 222.707C72.9134 222.168 72.1162 221.393 71.5515 220.456C70.9869 219.519 70.674 218.452 70.6432 217.358C70.6124 216.265 70.8648 215.182 71.3758 214.214L127.656 107.678C128.358 106.349 128.783 104.893 128.906 103.396C129.029 101.898 128.848 100.392 128.373 98.9667C127.898 97.5416 127.139 96.2275 126.142 95.1038C125.146 93.98 123.932 93.07 122.573 92.4285L119.251 90.8594C116.671 89.641 113.722 89.4611 111.013 90.3569C108.304 91.2527 106.044 93.1556 104.699 95.672L36.0577 224.097C34.8889 226.284 34.2773 228.726 34.2773 231.206V231.206C34.2773 235.204 35.8657 239.04 38.6929 241.867C41.5201 244.695 45.3546 246.283 49.3529 246.283H130.163V281.393C130.163 283.143 130.508 284.876 131.177 286.493C131.847 288.11 132.829 289.58 134.066 290.817C135.304 292.055 136.773 293.037 138.39 293.706C140.006 294.376 141.739 294.721 143.489 294.721H143.489C147.024 294.721 150.413 293.317 152.913 290.817C155.412 288.318 156.816 284.927 156.816 281.393V246.283H175.668C177.162 246.283 178.641 245.989 180.021 245.417C181.402 244.845 182.656 244.007 183.712 242.951C184.769 241.894 185.607 240.64 186.178 239.26C186.75 237.879 187.044 236.4 187.044 234.905V234.905C187.044 233.411 186.75 231.932 186.178 230.551C185.607 229.171 184.769 227.917 183.712 226.86C182.656 225.803 181.402 224.965 180.022 224.394C178.641 223.822 177.162 223.527 175.668 223.527V223.527Z" stroke="#333333" stroke-miterlimit="10"/>
<path d="M529.305 223.527H510.453V168.005C510.453 165.056 509.281 162.227 507.196 160.142C505.111 158.057 502.283 156.885 499.335 156.885H494.917C493.457 156.885 492.012 157.173 490.663 157.732C489.314 158.29 488.088 159.109 487.056 160.142C486.024 161.174 485.205 162.4 484.646 163.749C484.087 165.098 483.8 166.544 483.8 168.005V223.527H430.624C429.53 223.527 428.455 223.245 427.503 222.707C426.55 222.168 425.753 221.393 425.188 220.456C424.624 219.519 424.311 218.452 424.28 217.358C424.249 216.265 424.502 215.182 425.013 214.214L481.293 107.678C481.994 106.349 482.42 104.893 482.543 103.396C482.666 101.898 482.485 100.392 482.01 98.9667C481.535 97.5416 480.776 96.2275 479.779 95.1038C478.782 93.98 477.568 93.07 476.21 92.4285L472.888 90.8594C470.308 89.641 467.359 89.4611 464.65 90.3569C461.941 91.2527 459.681 93.1556 458.336 95.672L389.694 224.097C388.526 226.284 387.914 228.726 387.914 231.206C387.914 235.204 389.502 239.04 392.33 241.867C395.157 244.695 398.991 246.283 402.99 246.283H483.8V281.393C483.8 284.927 485.204 288.318 487.703 290.817C490.202 293.317 493.592 294.721 497.126 294.721V294.721C500.661 294.721 504.05 293.317 506.549 290.817C509.049 288.318 510.453 284.927 510.453 281.393V246.283H529.305C530.799 246.283 532.278 245.989 533.658 245.417C535.038 244.845 536.293 244.007 537.349 242.951C538.405 241.894 539.243 240.64 539.815 239.26C540.387 237.879 540.681 236.4 540.681 234.905V234.905C540.681 231.888 539.482 228.994 537.349 226.86C535.216 224.726 532.322 223.527 529.305 223.527V223.527Z" stroke="#333333" stroke-miterlimit="10"/>
<path d="M286.506 82.7659C240.909 82.7659 208.172 112.023 208.172 180.291C208.172 257.661 240.909 278.142 286.506 278.142C332.102 278.142 366.789 255.711 366.789 180.291C366.789 99.6703 332.102 82.7659 286.506 82.7659ZM286.805 252.46C255.224 252.46 238.725 233.93 238.725 180.341C238.725 133.057 255.9 108.122 287.481 108.122C319.062 108.122 336.236 124.501 336.236 180.341C336.236 232.579 318.386 252.46 286.805 252.46V252.46Z" stroke="#333333" stroke-miterlimit="10"/>
<path d="M249.958 16.5294C253.738 16.5294 256.802 13.4646 256.802 9.6839C256.802 5.90322 253.738 2.83838 249.958 2.83838C246.178 2.83838 243.113 5.90322 243.113 9.6839C243.113 13.4646 246.178 16.5294 249.958 16.5294Z" fill="#333333"/>
<path d="M266.651 49.7552C277.254 49.7552 285.849 38.6171 285.849 24.8776C285.849 11.1381 277.254 0 266.651 0C256.048 0 247.453 11.1381 247.453 24.8776C247.453 38.6171 256.048 49.7552 266.651 49.7552Z" fill="#333333"/>
<path opacity="0.1" d="M266.651 42.2418C257.034 42.2418 249.069 33.0778 247.671 21.1208C247.525 22.3678 247.453 23.6221 247.453 24.8775C247.453 38.6171 256.048 49.7552 266.651 49.7552C277.254 49.7552 285.849 38.6171 285.849 24.8775C285.849 23.6221 285.777 22.3678 285.631 21.1208C284.234 33.0778 276.268 42.2418 266.651 42.2418Z" fill="#03023B"/>
<path d="M305.714 97.7328C305.302 99.4273 303.524 100.784 301.556 101.733C297.416 103.726 292.311 104.321 287.359 104.52C286.095 104.597 284.828 104.574 283.568 104.45C281.127 104.214 278.837 103.161 277.069 101.462C276.943 101.38 276.839 101.267 276.769 101.134C276.698 101.001 276.662 100.852 276.664 100.701C276.666 100.551 276.707 100.403 276.782 100.272C276.857 100.141 276.963 100.032 277.092 99.9533C279.729 97.0568 284.128 95.2807 288.56 94.0019C291.921 93.0323 297.781 90.5206 301.447 90.8596C304.997 91.1879 306.235 95.5933 305.714 97.7328Z" fill="#333333"/>
<path opacity="0.1" d="M305.714 97.7328C305.302 99.4273 303.524 100.784 301.556 101.733C297.416 103.726 292.311 104.321 287.359 104.52C286.095 104.597 284.828 104.574 283.568 104.45C281.127 104.214 278.837 103.161 277.069 101.462C276.943 101.38 276.839 101.267 276.769 101.134C276.698 101.001 276.662 100.852 276.664 100.701C276.666 100.551 276.707 100.403 276.782 100.272C276.857 100.141 276.963 100.032 277.092 99.9533C279.729 97.0568 284.128 95.2807 288.56 94.0019C291.921 93.0323 297.781 90.5206 301.447 90.8596C304.997 91.1879 306.235 95.5933 305.714 97.7328Z" fill="#03023B"/>
<path d="M253.087 85.0686C251.824 87.5452 251.595 90.4222 252.451 93.0674C253.322 95.6926 254.953 98.0003 257.136 99.6984C262.491 103.992 269.862 104.583 276.725 104.523C282.74 104.471 288.747 104.059 294.713 103.29C296.712 103.113 298.677 102.657 300.55 101.935C302.79 100.965 304.758 99.1874 305.556 96.8802C306.353 94.573 305.787 91.7479 303.893 90.2081C302.229 88.8552 299.934 88.6691 297.793 88.5405L285.545 87.8043C286.755 86.5794 288.366 85.8866 289.84 84.9962C291.795 83.8148 293.094 81.8313 294.515 80.0431C296.706 77.4249 299.089 74.9742 301.645 72.7116C302.044 74.9988 303.49 76.8769 305.193 78.455C306.895 80.0331 308.858 81.3035 310.628 82.8061C314.914 86.4452 318 91.3844 322.507 94.745C325.608 93.9301 328.507 92.4827 331.022 90.4937L329.27 87.3199C329.124 86.9932 328.896 86.7095 328.609 86.4959C328.114 86.1908 327.474 86.348 326.898 86.2617C325.36 86.0309 324.687 84.2539 324.083 82.8194C322.426 78.8814 319.251 75.826 316.54 72.5235C314.54 70.0857 312.765 67.4709 311.237 64.7114C310.327 63.0656 309.493 61.3521 308.257 59.9342C307.021 58.5163 305.29 57.4016 303.409 57.3976C301.747 57.3941 300.214 58.2378 298.786 59.0866C294.434 61.6718 290.247 64.5247 286.249 67.6289C284.157 69.2534 282.078 70.9698 279.623 71.9661C278.59 72.3854 277.501 72.6721 276.509 73.1823C274.773 74.0761 273.455 75.5883 272.036 76.9307C266.976 81.7185 260.048 84.8205 253.087 85.0686Z" fill="#03023B"/>
<path d="M278.699 50.9907C278.642 52.4542 278.331 53.8967 277.779 55.2533C277.5 55.93 277.084 56.5417 276.557 57.0505C276.031 57.5592 275.405 57.954 274.72 58.2103C273.746 58.4712 272.725 58.5043 271.736 58.3071C270.874 58.217 270.043 57.934 269.306 57.479C268.157 56.6892 267.585 55.28 267.376 53.9009C267.167 52.5234 267.261 51.116 267.127 49.7285C266.997 48.6078 266.784 47.4984 266.489 46.4093C266.399 46.0469 266.307 45.6863 266.217 45.3257C266.129 44.965 266.042 44.6044 265.962 44.2437C265.888 43.9048 265.82 43.5642 265.762 43.2219C265.713 42.9331 265.67 42.6426 265.638 42.3504C265.609 41.4842 265.465 40.6257 265.209 39.7975C264.969 39.2604 264.669 38.7523 264.314 38.2831C264.162 38.0661 264.015 37.849 263.88 37.6236C263.489 37.0379 263.307 36.3371 263.364 35.6351C263.38 35.5266 263.407 35.4198 263.443 35.3162C263.456 35.2761 263.471 35.2361 263.488 35.1977C263.638 35.1569 263.776 35.08 263.89 34.9738C264.003 34.8676 264.09 34.7352 264.141 34.5882C264.198 34.2723 264.171 33.9469 264.062 33.6449C263.937 33.2228 263.767 32.8158 263.553 32.431C263.413 32.1772 262.937 31.7198 262.934 31.4292C262.927 30.8449 264.069 30.374 264.531 30.1436C265.943 29.4367 267.517 29.1175 269.092 29.2186C270.102 29.2871 271.197 29.5976 271.755 30.4441C272.256 31.2072 272.189 32.1956 272.402 33.0822C272.425 33.211 272.479 33.3322 272.561 33.4345C272.67 33.5338 272.807 33.5968 272.953 33.6148C273.201 33.664 273.454 33.6741 273.705 33.6448H273.706C273.772 33.6396 273.838 33.6301 273.903 33.6165C274.293 33.5445 274.662 33.3852 274.982 33.1506C275.189 33.0955 275.397 33.0504 275.608 33.0154C275.616 33.0145 275.625 33.0128 275.633 33.0104C276.469 35.6501 276.578 38.4801 277.262 41.1682C277.601 42.5056 278.087 43.8263 278.155 45.2021C278.16 45.2622 278.162 45.324 278.163 45.3857C278.174 45.8282 278.138 46.274 278.157 46.7148C278.163 46.9133 278.186 47.1109 278.224 47.3058C278.298 47.6193 278.392 47.9282 278.502 48.2308L278.507 48.2458C278.539 48.3427 278.569 48.4412 278.594 48.5397C278.613 48.6115 278.629 48.6816 278.643 48.7534L278.644 48.7584C278.768 49.4962 278.786 50.2478 278.699 50.9907Z" fill="#FBBEBE"/>
<path d="M266.982 33.7268C272.422 33.7268 276.832 29.3164 276.832 23.8759C276.832 18.4354 272.422 14.025 266.982 14.025C261.543 14.025 257.133 18.4354 257.133 23.8759C257.133 29.3164 261.543 33.7268 266.982 33.7268Z" fill="#FBBEBE"/>
<path d="M329.517 77.548C329.232 74.8605 328.276 72.2875 326.739 70.0647C326.995 71.5841 327.251 73.1029 327.507 74.6212C327.188 74.7135 326.849 74.7106 326.532 74.6131C326.215 74.5155 325.933 74.3274 325.721 74.0719C325.306 73.5539 324.989 72.965 324.784 72.3338C323.665 69.5555 322.202 66.9287 320.429 64.5149C314.159 63.9923 307.96 61.3926 302.446 58.3622C296.931 55.3335 291.769 51.702 286.327 48.5448C285.383 47.9744 284.4 47.4722 283.385 47.0421C281.682 46.3592 279.771 46.0052 278.157 45.2021C278.048 45.1487 277.94 45.0919 277.833 45.0335C277.468 44.8351 277.123 44.6031 276.801 44.3406C276.627 44.1994 276.462 44.0478 276.307 43.8864C275.502 42.9493 274.863 41.8808 274.419 40.7275C273.552 38.8107 273.244 36.4983 272.379 34.5815C272.776 34.21 273.223 33.8949 273.706 33.6449H273.708C273.778 33.6081 273.848 33.5731 273.92 33.5397C274.262 33.3785 274.618 33.2483 274.983 33.1507C275.19 33.0956 275.399 33.0505 275.609 33.0154C275.618 33.0146 275.626 33.0129 275.634 33.0104C276.61 32.8515 277.609 32.9305 278.547 33.2408C279.92 33.705 281.076 34.6316 282.23 35.5082C284.104 36.8287 285.902 38.2546 287.614 39.7791C288.565 40.6907 289.433 41.6925 290.457 42.5207C291.307 43.1771 292.204 43.7713 293.139 44.2988C298.677 47.598 304.215 50.8967 309.753 54.1948C311.628 55.3118 313.504 56.4288 315.337 57.6109C318.122 59.4074 320.806 61.3542 323.489 63.2993C325.07 64.4447 326.65 65.5906 328.23 66.7371C328.748 67.0678 329.203 67.4885 329.574 67.9793C329.901 68.5366 330.104 69.1579 330.17 69.8009C330.566 72.3986 330.343 75.0533 329.517 77.548Z" fill="#FBBEBE"/>
<path d="M281.142 58.399C280.478 61.3793 277.466 63.1809 275.892 65.7988C273.936 69.048 274.734 72.8247 275.468 76.5463C274.126 77.7034 272.783 78.8604 271.44 80.0175C270.699 80.6536 269.957 81.2931 269.159 81.8558C267.996 82.6355 266.78 83.334 265.52 83.9461C264.332 84.5572 263.143 85.1689 261.954 85.7811C260.849 86.4025 259.679 86.8986 258.464 87.2604C256.122 87.8615 253.634 87.4407 251.317 86.7445C251.044 86.6728 250.781 86.5656 250.536 86.4256C250.391 86.3394 250.265 86.2253 250.165 86.09C249.937 85.6803 249.854 85.2054 249.93 84.7426C250.165 80.8423 251.118 77.0238 252.068 73.2337C252.576 70.96 253.259 68.7288 254.11 66.5602C254.945 64.702 255.905 62.9025 256.983 61.1739C258.173 58.9991 259.583 56.952 261.19 55.0647C261.972 54.3383 262.631 53.489 263.14 52.5503C263.732 51.1978 263.504 49.6467 263.624 48.1741C263.716 47.0677 264.009 45.9875 264.49 44.9868V44.9851C264.747 44.4461 265.057 43.9338 265.415 43.4557C265.577 43.8331 265.739 44.2099 265.901 44.5861C266.008 44.8332 266.113 45.0797 266.218 45.3258C266.355 45.643 266.491 45.9591 266.625 46.2741C267.014 47.1791 267.403 48.0834 267.791 48.9873C268.21 50.1257 268.807 51.1903 269.56 52.1412C269.904 52.6282 270.369 53.0175 270.909 53.2712C271.448 53.525 272.045 53.6343 272.639 53.5888C273.234 53.5432 273.806 53.3442 274.301 53.0111C274.796 52.6781 275.195 52.2225 275.461 51.6887C276.023 50.6924 276.429 49.6166 276.667 48.4981C276.996 47.1362 277.042 45.7209 276.8 44.3407C276.398 41.6826 275.268 38.9678 274.446 36.4984C274.112 35.675 273.919 34.8013 273.874 33.9138C273.876 33.814 273.886 33.7146 273.904 33.6166C273.909 33.5915 273.914 33.5648 273.919 33.5398C274.261 33.3786 274.617 33.2484 274.982 33.1507C275.189 33.0956 275.398 33.0506 275.608 33.0155C276.331 36.9291 277.055 40.8428 277.78 44.7564C277.797 44.8482 277.815 44.9401 277.832 45.0336C277.935 45.5946 278.041 46.1556 278.157 46.7149C278.263 47.2225 278.376 47.7284 278.503 48.2309L278.508 48.2459C278.551 48.4163 278.597 48.5849 278.643 48.7535L278.645 48.7585C278.773 49.2194 278.917 49.6768 279.079 50.1276C280.061 52.8441 281.772 55.579 281.142 58.399Z" fill="#3A86FF"/>
<path d="M321.114 100.282C321.083 100.856 321.195 101.429 321.438 101.95C322.055 103.076 323.534 103.333 324.813 103.438C332.29 104.053 339.812 103.823 347.237 102.755C347.64 102.727 348.031 102.606 348.378 102.4C349.434 101.66 348.783 99.8561 347.63 99.2785C346.478 98.701 345.11 98.8402 343.845 98.5901C342.588 98.2737 341.392 97.7547 340.302 97.0533C337.737 95.5794 335.209 94.0427 332.719 92.4433C331.237 91.4911 329.487 90.4748 327.817 91.0394C323.294 92.5697 321.085 95.4021 321.114 100.282Z" fill="#020225"/>
<path d="M266.001 44.035V44.0367C265.989 44.1068 265.977 44.1753 265.962 44.2437C265.944 44.3573 265.922 44.4725 265.901 44.586C265.694 45.6462 265.44 46.7014 265.148 47.7499C264.346 50.6468 263.273 53.4968 262.208 56.3052C259.35 63.8352 256.491 71.3659 253.632 78.897C252.911 80.7938 252.192 82.6921 251.372 84.5504C251.098 85.1699 250.816 85.7943 250.536 86.4254C249.531 88.6845 248.566 91.017 248.245 93.4212C247.946 95.0036 247.912 96.6245 248.143 98.2181C248.464 99.7942 249.421 101.334 250.918 101.916C251.649 102.202 252.696 102.584 252.495 103.344C252.387 103.761 251.913 103.965 251.487 104.035C250.925 104.125 250.35 104.09 249.803 103.932C249.256 103.774 248.75 103.498 248.322 103.124C247.522 102.414 246.908 101.31 245.845 101.192C245.108 101.112 244.431 101.552 243.756 101.861C241.005 103.119 237.8 102.239 234.91 101.345C235.137 100.175 236.312 99.4036 237.479 99.1698C238.646 98.9344 239.853 99.1014 241.043 99.0696C241.425 99.09 241.803 98.9926 242.127 98.7908C242.417 98.5241 242.621 98.1762 242.711 97.7924C243.478 95.5202 244.048 93.1864 244.416 90.8166C244.8 88.3405 244.96 85.8261 245.507 83.38C245.933 81.4716 246.591 79.6234 247.155 77.75C248.246 73.8929 249.142 69.9832 249.839 66.0358C250.192 64.3959 250.445 62.736 250.596 61.0653C250.691 59.6795 250.646 58.287 250.779 56.9062C251.003 55.1098 251.378 53.3354 251.9 51.6018C252.41 49.7101 252.921 47.8195 253.43 45.93C254.187 43.1334 254.998 40.2282 256.914 38.0544C257.58 37.2891 258.396 36.6686 259.311 36.2315C260.226 35.7944 261.221 35.5499 262.235 35.5132C262.615 35.5127 262.994 35.5536 263.365 35.6351C263.427 35.6501 263.488 35.6651 263.55 35.6818C263.955 35.7876 264.343 35.9483 264.704 36.1593C265.295 35.7837 265.595 35.9156 265.987 36.4949C266.331 37.1081 266.494 37.8065 266.455 38.5085C266.488 40.3612 266.336 42.2126 266.001 44.035Z" fill="#FBBEBE"/>
<path d="M266.65 46.249L266.625 46.274L266.49 46.4093L265.147 47.75L264.49 44.9867L262.234 35.5132C262.614 35.5127 262.993 35.5536 263.365 35.6351C263.381 35.5265 263.407 35.4198 263.443 35.3162L263.55 35.6818L264.314 38.2831L265.762 43.2219L266 44.035V44.0367L266.65 46.249Z" fill="#3A86FF"/>
<path d="M275.166 16.026C275.164 16.9032 274.99 17.7716 274.654 18.5815C274.317 19.3914 273.824 20.127 273.202 20.7462C272.977 20.9716 272.736 21.1802 272.481 21.3704C271.329 22.239 269.925 22.7091 268.483 22.7098H260.474C258.704 22.707 257.008 22.002 255.757 20.7495C254.507 19.4969 253.805 17.7993 253.805 16.0293C253.805 14.2593 254.507 12.5616 255.757 11.3091C257.008 10.0565 258.704 9.35149 260.474 9.34875H268.483C270.253 9.35336 271.949 10.0581 273.201 11.3092C274.453 12.5602 275.159 14.2559 275.166 16.026Z" fill="#333333"/>
<path d="M282.677 16.5294C286.457 16.5294 289.521 13.4646 289.521 9.6839C289.521 5.90322 286.457 2.83838 282.677 2.83838C278.896 2.83838 275.832 5.90322 275.832 9.6839C275.832 13.4646 278.896 16.5294 282.677 16.5294Z" fill="#333333"/>
<path opacity="0.1" d="M282.508 2.83838C282.424 2.83838 282.341 2.84171 282.258 2.84471C284.028 2.90909 285.705 3.65783 286.935 4.93339C288.165 6.20895 288.852 7.91189 288.852 9.6839C288.852 11.4559 288.165 13.1588 286.935 14.4344C285.705 15.71 284.028 16.4587 282.258 16.5231C282.341 16.5261 282.424 16.5294 282.508 16.5294C284.323 16.5294 286.064 15.8082 287.348 14.5244C288.632 13.2406 289.353 11.4994 289.353 9.6839C289.353 7.86836 288.632 6.12717 287.348 4.84339C286.064 3.5596 284.323 2.83838 282.508 2.83838Z" fill="#03023B"/>
<path opacity="0.1" d="M249.956 2.83838C250.04 2.83838 250.123 2.84171 250.206 2.84471C248.435 2.90909 246.759 3.65783 245.529 4.93339C244.299 6.20895 243.612 7.91189 243.612 9.6839C243.612 11.4559 244.299 13.1588 245.529 14.4344C246.759 15.71 248.435 16.4587 250.206 16.5231C250.123 16.5261 250.04 16.5294 249.956 16.5294C248.141 16.5278 246.402 15.8059 245.12 14.5223C243.837 13.2387 243.117 11.4984 243.117 9.6839C243.117 7.8694 243.837 6.12913 245.12 4.84552C246.402 3.56191 248.141 2.83998 249.956 2.83838Z" fill="#03023B"/>
<path opacity="0.1" d="M272.481 21.3704C271.329 22.2389 269.926 22.709 268.483 22.7097H260.475C259.032 22.709 257.629 22.2389 256.477 21.3704H272.481Z" fill="#03023B"/>
<path d="M324.199 70.9726C324.199 70.9726 325.925 75.9453 327.504 74.6212L326.245 68.1213L324.199 70.9726Z" fill="#FBBEBE"/>
<path d="M534.175 222.618C535.782 223.202 537.503 223.405 539.202 223.211C540.901 223.017 542.532 222.431 543.966 221.498C545.399 220.566 546.597 219.314 547.464 217.84C548.331 216.366 548.844 214.71 548.963 213.004C549.081 211.298 548.802 209.588 548.147 208.008C547.492 206.428 546.478 205.022 545.187 203.901C543.896 202.78 542.362 201.973 540.706 201.546C539.05 201.119 537.318 201.082 535.646 201.439L535.922 207.123L533.233 202.251C530.594 203.492 528.556 205.729 527.565 208.472C527.213 209.432 527 210.438 526.93 211.459C526.76 213.854 527.376 216.239 528.683 218.253C529.991 220.266 531.919 221.799 534.175 222.618Z" fill="#46D5B3"/>
<path d="M547.479 288.543C546.529 283.709 550.642 279.424 554.705 276.638C558.767 273.852 563.514 271.116 564.901 266.388C566.893 259.594 560.959 253.372 556.34 248.007C552.913 244.025 549.971 239.651 547.574 234.977C546.613 233.102 545.73 231.143 545.477 229.052C545.113 226.04 546.08 223.043 547.055 220.171C550.301 210.602 553.773 201.112 557.468 191.703" stroke="#333333" stroke-miterlimit="10"/>
<path d="M534.628 221.155C536.235 221.739 537.956 221.942 539.655 221.748C541.354 221.553 542.985 220.967 544.419 220.035C545.852 219.103 547.05 217.85 547.917 216.376C548.785 214.902 549.298 213.247 549.416 211.541C549.535 209.835 549.255 208.124 548.6 206.544C547.945 204.965 546.932 203.559 545.64 202.437C544.349 201.316 542.815 200.51 541.159 200.083C539.504 199.655 537.771 199.619 536.099 199.975L536.375 205.659L533.686 200.788C531.047 202.028 529.009 204.265 528.018 207.008C527.666 207.969 527.453 208.975 527.383 209.995C527.213 212.39 527.829 214.775 529.136 216.789C530.444 218.803 532.372 220.335 534.628 221.155V221.155Z" stroke="#333333" stroke-miterlimit="10"/>
<path d="M546.131 189.741C546.762 188 547.82 186.446 549.209 185.222C550.598 183.999 552.272 183.144 554.078 182.738L554.987 188.141L556.673 182.466C559.013 182.501 561.282 183.278 563.151 184.687C565.021 186.095 566.394 188.061 567.074 190.301C567.753 192.541 567.704 194.939 566.932 197.149C566.16 199.359 564.705 201.266 562.779 202.596C560.852 203.925 558.553 204.608 556.214 204.545C553.874 204.482 551.615 203.678 549.762 202.247C547.91 200.817 546.559 198.834 545.907 196.586C545.254 194.338 545.333 191.941 546.131 189.741H546.131Z" fill="#46D5B3"/>
<path d="M546.736 187.789C547.367 186.049 548.426 184.495 549.814 183.271C551.203 182.047 552.878 181.193 554.684 180.787L555.593 186.19L557.278 180.515C559.619 180.55 561.887 181.327 563.757 182.736C565.626 184.144 567 186.11 567.679 188.35C568.359 190.59 568.309 192.988 567.537 195.198C566.765 197.408 565.311 199.315 563.384 200.644C561.458 201.974 559.159 202.656 556.819 202.594C554.479 202.531 552.22 201.727 550.368 200.296C548.515 198.865 547.165 196.883 546.512 194.635C545.86 192.387 545.938 189.99 546.736 187.789H546.736Z" stroke="#333333" stroke-miterlimit="10"/>
<path d="M554.403 248.117C556.952 249.041 559.752 248.996 562.269 247.988C564.786 246.981 566.845 245.083 568.053 242.655C569.26 240.227 569.532 237.44 568.817 234.824C568.102 232.208 566.45 229.947 564.175 228.472L562.88 232.833L561.962 227.366C561.952 227.361 561.943 227.358 561.933 227.355C560.57 226.86 559.123 226.638 557.674 226.702C556.225 226.766 554.802 227.115 553.488 227.729C552.174 228.343 550.994 229.21 550.015 230.281C549.036 231.351 548.278 232.604 547.783 233.968C547.288 235.332 547.067 236.779 547.132 238.229C547.197 239.678 547.547 241.1 548.162 242.414C548.777 243.728 549.644 244.908 550.715 245.886C551.786 246.865 553.039 247.623 554.403 248.117H554.403Z" fill="#46D5B3"/>
<path d="M554.927 246.14C557.475 247.065 560.275 247.019 562.792 246.012C565.31 245.005 567.368 243.106 568.576 240.678C569.784 238.251 570.056 235.463 569.341 232.848C568.626 230.232 566.973 227.971 564.699 226.496L563.403 230.857L562.485 225.389C562.476 225.385 562.467 225.382 562.457 225.379C561.094 224.883 559.646 224.661 558.197 224.725C556.748 224.79 555.326 225.139 554.012 225.753C552.698 226.367 551.517 227.234 550.538 228.304C549.559 229.375 548.801 230.628 548.306 231.992C547.812 233.355 547.591 234.803 547.656 236.252C547.721 237.702 548.071 239.124 548.685 240.438C549.3 241.752 550.168 242.932 551.239 243.91C552.31 244.889 553.563 245.646 554.927 246.14H554.927Z" stroke="#333333" stroke-miterlimit="10"/>
<path d="M542.908 266.456C543.346 268.95 544.628 271.217 546.54 272.878C548.451 274.539 550.875 275.491 553.406 275.577C555.936 275.662 558.419 274.874 560.438 273.346C562.456 271.818 563.888 269.642 564.493 267.183C565.098 264.724 564.839 262.132 563.76 259.841C562.681 257.551 560.848 255.701 558.567 254.602C556.286 253.503 553.696 253.221 551.233 253.805C548.769 254.389 546.581 255.802 545.036 257.808L549.955 265.214L543.233 261.283C542.712 262.956 542.6 264.73 542.908 266.456Z" fill="#46D5B3"/>
<path d="M543.361 264.992C543.799 267.486 545.082 269.754 546.993 271.415C548.904 273.075 551.328 274.028 553.859 274.113C556.389 274.198 558.872 273.411 560.891 271.883C562.909 270.354 564.341 268.178 564.946 265.72C565.551 263.261 565.292 260.669 564.213 258.378C563.134 256.087 561.301 254.237 559.02 253.138C556.739 252.039 554.149 251.758 551.686 252.342C549.222 252.926 547.034 254.339 545.489 256.345L550.408 263.75L543.686 259.82C543.165 261.493 543.054 263.267 543.361 264.992V264.992Z" stroke="#333333" stroke-miterlimit="10"/>
<path d="M4.77836 249.52C5.83428 249.904 6.96492 250.037 8.08118 249.909C9.19743 249.782 10.2688 249.396 11.2108 248.784C12.1528 248.172 12.9397 247.349 13.5095 246.38C14.0793 245.412 14.4164 244.324 14.4942 243.203C14.572 242.082 14.3885 240.958 13.958 239.92C13.5275 238.882 12.8618 237.959 12.0135 237.222C11.1652 236.485 10.1573 235.956 9.06943 235.675C7.98153 235.394 6.8433 235.37 5.74446 235.604L5.92605 239.339L4.15944 236.138C2.42562 236.953 1.08617 238.423 0.435441 240.225C0.20434 240.856 0.0638474 241.517 0.0181551 242.188C-0.0933538 243.761 0.311023 245.328 1.17001 246.651C2.02899 247.974 3.29576 248.981 4.77836 249.52Z" fill="#46D5B3"/>
<path d="M13.519 292.834C12.8954 289.658 15.5976 286.842 18.2668 285.012C20.936 283.182 24.0548 281.383 24.9656 278.278C26.2744 273.814 22.3757 269.726 19.3411 266.201C17.0898 263.584 15.1565 260.711 13.5815 257.639C12.8968 256.433 12.4305 255.115 12.2039 253.747C11.9646 251.768 12.6002 249.799 13.2405 247.912C15.3736 241.625 17.6542 235.39 20.0824 229.208" stroke="#333333" stroke-miterlimit="10"/>
<path d="M5.07915 248.558C6.13506 248.942 7.26571 249.075 8.38196 248.948C9.49821 248.82 10.5696 248.435 11.5116 247.823C12.4536 247.21 13.2405 246.387 13.8103 245.419C14.3801 244.45 14.7172 243.363 14.795 242.242C14.8728 241.121 14.6892 239.997 14.2588 238.959C13.8283 237.921 13.1626 236.997 12.3143 236.261C11.4659 235.524 10.4581 234.994 9.37021 234.713C8.28231 234.433 7.14408 234.409 6.04525 234.643L6.22683 238.377L4.46022 235.177C2.7264 235.992 1.38695 237.462 0.736222 239.264C0.505124 239.895 0.364633 240.556 0.318939 241.226C0.207422 242.8 0.611796 244.367 1.47078 245.69C2.32976 247.013 3.59654 248.02 5.07915 248.558V248.558Z" stroke="#333333" stroke-miterlimit="10"/>
<path d="M12.6342 227.919C13.0486 226.775 13.7441 225.754 14.6566 224.95C15.5691 224.146 16.6693 223.585 17.8558 223.318L18.4531 226.868L19.5605 223.139C21.0981 223.162 22.5886 223.673 23.817 224.598C25.0453 225.523 25.9478 226.815 26.3942 228.287C26.8407 229.759 26.8079 231.334 26.3007 232.786C25.7935 234.238 24.838 235.491 23.5723 236.365C22.3065 237.238 20.796 237.687 19.2588 237.645C17.7216 237.604 16.2373 237.076 15.0201 236.136C13.8029 235.196 12.9158 233.893 12.487 232.416C12.0582 230.939 12.1097 229.364 12.6342 227.919Z" fill="#46D5B3"/>
<path d="M13.0327 226.637C13.4471 225.493 14.1425 224.472 15.0551 223.668C15.9676 222.864 17.0677 222.303 18.2542 222.036L18.8515 225.586L19.9589 221.857C21.4965 221.88 22.9871 222.391 24.2154 223.316C25.4437 224.241 26.3463 225.533 26.7927 227.005C27.2391 228.477 27.2063 230.052 26.6991 231.504C26.1919 232.956 25.2364 234.209 23.9707 235.083C22.705 235.956 21.1945 236.405 19.6573 236.363C18.1201 236.322 16.6357 235.794 15.4185 234.854C14.2013 233.914 13.3143 232.611 12.8854 231.134C12.4566 229.657 12.5082 228.082 13.0327 226.637V226.637Z" stroke="#333333" stroke-miterlimit="10"/>
<path d="M18.0708 266.273C19.7454 266.88 21.5849 266.85 23.2388 266.188C24.8927 265.526 26.2453 264.279 27.0387 262.684C27.8322 261.089 28.0111 259.258 27.5412 257.539C27.0714 255.821 25.9857 254.335 24.4911 253.366L23.6402 256.231L23.0368 252.639C23.0308 252.636 23.0247 252.634 23.0183 252.632C22.1226 252.306 21.1715 252.16 20.2193 252.202C19.2672 252.244 18.3326 252.473 17.4691 252.877C16.6055 253.28 15.83 253.85 15.1867 254.553C14.5434 255.257 14.045 256.08 13.72 256.976C13.395 257.872 13.2497 258.824 13.2925 259.776C13.3352 260.728 13.5652 261.663 13.9693 262.526C14.3733 263.389 14.9435 264.165 15.6473 264.807C16.3511 265.45 17.1746 265.948 18.0708 266.273Z" fill="#46D5B3"/>
<path d="M18.4132 264.974C20.0878 265.581 21.9273 265.551 23.5812 264.89C25.2351 264.228 26.5876 262.981 27.3811 261.385C28.1746 259.79 28.3534 257.959 27.8836 256.24C27.4137 254.522 26.3281 253.036 24.8335 252.067L23.9826 254.932L23.3792 251.34C23.3732 251.338 23.367 251.335 23.3607 251.333C22.4652 251.008 21.5144 250.863 20.5628 250.906C19.6111 250.948 18.6771 251.178 17.8142 251.581C16.0714 252.397 14.7237 253.871 14.0676 255.68C13.4116 257.488 13.5008 259.484 14.3158 261.227C15.1307 262.97 16.6046 264.318 18.4132 264.974V264.974Z" stroke="#333333" stroke-miterlimit="10"/>
<path d="M10.5138 278.322C10.8017 279.96 11.6442 281.45 12.9 282.541C14.1558 283.632 15.7485 284.258 17.411 284.314C19.0735 284.37 20.7047 283.853 22.0311 282.849C23.3574 281.845 24.2982 280.415 24.6957 278.799C25.0932 277.184 24.9232 275.481 24.2142 273.976C23.5053 272.471 22.3004 271.255 20.8018 270.533C19.3032 269.811 17.6019 269.627 15.9833 270.01C14.3646 270.394 12.9271 271.322 11.9117 272.64L15.1439 277.506L10.7276 274.923C10.3851 276.023 10.3118 277.188 10.5138 278.322Z" fill="#46D5B3"/>
<path d="M10.8146 277.36C11.1025 278.999 11.945 280.489 13.2008 281.58C14.4566 282.671 16.0493 283.297 17.7118 283.353C19.3743 283.409 21.0055 282.891 22.3319 281.887C23.6582 280.883 24.599 279.453 24.9965 277.838C25.394 276.222 25.224 274.519 24.515 273.014C23.806 271.509 22.6012 270.294 21.1026 269.572C19.604 268.85 17.9027 268.665 16.284 269.049C14.6654 269.432 13.2279 270.361 12.2125 271.679L15.4447 276.544L11.0283 273.962C10.6859 275.061 10.6126 276.227 10.8146 277.36V277.36Z" stroke="#333333" stroke-miterlimit="10"/>
<path d="M255.16 181C260.141 181 264.179 175.774 264.179 169.327C264.179 162.879 260.141 157.653 255.16 157.653C250.179 157.653 246.141 162.879 246.141 169.327C246.141 175.774 250.179 181 255.16 181Z" fill="#4F4F4F"/>
<path d="M304.234 181.265C309.215 181.265 313.253 176.039 313.253 169.592C313.253 163.145 309.215 157.918 304.234 157.918C299.253 157.918 295.215 163.145 295.215 169.592C295.215 176.039 299.253 181.265 304.234 181.265Z" fill="#4F4F4F"/>
<path d="M297.334 204.082C297.334 209.356 289.971 213.633 280.888 213.633C271.805 213.633 264.441 209.356 264.441 204.082C264.441 199.513 269.964 195.693 277.344 194.759C278.519 194.604 279.703 194.528 280.888 194.531C282.874 194.524 284.854 194.738 286.793 195.167C292.958 196.542 297.334 200.017 297.334 204.082Z" fill="#4F4F4F"/>
<path d="M257.281 178.347C262.262 178.347 266.3 173.121 266.3 166.673C266.3 160.226 262.262 155 257.281 155C252.3 155 248.262 160.226 248.262 166.673C248.262 173.121 252.3 178.347 257.281 178.347Z" stroke="#333333" stroke-miterlimit="10"/>
<path d="M306.355 178.612C311.336 178.612 315.374 173.386 315.374 166.939C315.374 160.492 311.336 155.265 306.355 155.265C301.374 155.265 297.336 160.492 297.336 166.939C297.336 173.386 301.374 178.612 306.355 178.612Z" stroke="#333333" stroke-miterlimit="10"/>
<path d="M283.009 210.98C292.092 210.98 299.456 206.703 299.456 201.429C299.456 196.154 292.092 191.878 283.009 191.878C273.926 191.878 266.562 196.154 266.562 201.429C266.562 206.703 273.926 210.98 283.009 210.98Z" stroke="#333333" stroke-miterlimit="10"/>
<path d="M286.987 195.963C286.992 196.631 286.741 197.274 286.287 197.763C286.073 197.997 285.812 198.185 285.522 198.313C285.231 198.442 284.918 198.509 284.6 198.51H279.295C278.641 198.487 278.023 198.207 277.576 197.729C277.128 197.252 276.888 196.617 276.907 195.963C276.905 195.446 277.056 194.939 277.342 194.509C278.516 194.343 279.701 194.262 280.886 194.265C282.874 194.259 284.856 194.487 286.791 194.944C286.922 195.268 286.989 195.614 286.987 195.963Z" fill="white"/>
<path d="M257.282 166.143C258.747 166.143 259.934 164.955 259.934 163.49C259.934 162.025 258.747 160.837 257.282 160.837C255.817 160.837 254.629 162.025 254.629 163.49C254.629 164.955 255.817 166.143 257.282 166.143Z" fill="white"/>
<path d="M306.621 166.143C308.086 166.143 309.274 164.955 309.274 163.49C309.274 162.025 308.086 160.837 306.621 160.837C305.156 160.837 303.969 162.025 303.969 163.49C303.969 164.955 305.156 166.143 306.621 166.143Z" fill="white"/>
<path opacity="0.3" d="M309.274 191.082C310.739 191.082 311.926 189.894 311.926 188.429C311.926 186.963 310.739 185.776 309.274 185.776C307.809 185.776 306.621 186.963 306.621 188.429C306.621 189.894 307.809 191.082 309.274 191.082Z" fill="#3A86FF"/>
<path opacity="0.3" d="M244.547 191.082C246.012 191.082 247.2 189.894 247.2 188.429C247.2 186.963 246.012 185.776 244.547 185.776C243.082 185.776 241.895 186.963 241.895 188.429C241.895 189.894 243.082 191.082 244.547 191.082Z" fill="#3A86FF"/>
</g>
<defs>
<clipPath id="clip0">
<rect width="570" height="310" fill="white"/>
</clipPath>
</defs>
</svg>
